<svg id="Layer_1" data-name="Layer 1" xmlns="http://www.w3.org/2000/svg" viewBox="0 0 118.85 44.94"><defs><style>.cls-1{fill:#c6d2eb;}</style></defs><title>Artboard 2</title><path class="cls-1" d="M6.23,40.85a1.42,1.42,0,0,1-.4-.51c-.17-.3-.36-.6-.55-.92a5.23,5.23,0,0,1-.48-1,2.6,2.6,0,0,1-.18-.81A3.83,3.83,0,0,1,5.1,36a17.87,17.87,0,0,1,1-1.75c.59-1,1.45-2.5,2.6-4.42s2.74-4.6,4.78-8c1.12-1.85,2.2-3.72,3.22-5.62a45.26,45.26,0,0,0,2.19-4.54,3.35,3.35,0,0,0,.3-1.24,1.39,1.39,0,0,0-.48-1.17,2.07,2.07,0,0,0-1.28-.36l-2,0c-.73,0-1.37.06-1.9.11a.54.54,0,0,1-.48-.33A1.42,1.42,0,0,1,12.88,8c0-.19.07-.29.22-.29A11.11,11.11,0,0,0,14.89,8c.71.07,1.4.11,2.08.11a18.6,18.6,0,0,0,2.78-.22A14.64,14.64,0,0,0,22,7.37c.34,0,.53.22.58.66s.23,1,.4,1.72.33,1.4.48,1.94q.59,2.19,1.53,4.93c.63,1.83,1.31,3.72,2,5.66s1.41,3.88,2.12,5.78,1.33,3.63,1.86,5.19a7.78,7.78,0,0,0,.3,1,.5.5,0,0,0,.51.36c.14,0,.3-.13.47-.4s.33-.55.48-.84q1.68-3.43,3.47-7c1.19-2.38,2.4-4.75,3.62-7.09s2.45-4.6,3.69-6.79S46,8.18,47.23,6.28a14.78,14.78,0,0,1,1.06-1.54,10.1,10.1,0,0,1,1.39-1.46,8.3,8.3,0,0,1,1.61-1.09,3.71,3.71,0,0,1,1.79-.44,2.69,2.69,0,0,1,1.28.47,2.21,2.21,0,0,1,1,1.06c0,.1-.07.15-.22.15a7,7,0,0,0-1.75.22,6.83,6.83,0,0,0-1.87.8,10.08,10.08,0,0,0-2,1.68,26.36,26.36,0,0,0-2.3,2.78A95.48,95.48,0,0,0,40.29,20q-3.37,6.29-6.22,12.64c-.53,1.27-1.08,2.56-1.64,3.88s-1.11,2.51-1.64,3.58c-.15.34-.3.51-.44.51s-.42-.17-.66-.51c-.58-2-1.28-4.29-2.08-6.73S26,28.55,25.12,26.16s-1.67-4.63-2.45-6.73-1.43-3.77-2-5c-.29-.63-.56-1-.8-1s-.56.29-.95.88c-1.22,1.9-2.36,3.68-3.4,5.33s-2,3.28-2.89,4.86S11,27.64,10.18,29.15,8.66,32.2,8,33.76a13.37,13.37,0,0,0-.54,1.53c-.18.59-.33,1.21-.48,1.87s-.27,1.31-.37,2a13,13,0,0,0-.14,1.72Z"/><path class="cls-1" d="M50,29.16a7.72,7.72,0,0,1-2.74-.53A6.12,6.12,0,0,1,45,27.14a7.18,7.18,0,0,1-1.5-2.48,10,10,0,0,1-.56-3.48,10.72,10.72,0,0,1,.44-3.11,7.18,7.18,0,0,1,1.32-2.53,6.19,6.19,0,0,1,2.19-1.71A7,7,0,0,1,50,13.2a7.12,7.12,0,0,1,3.1.63,6.44,6.44,0,0,1,2.19,1.69,7.06,7.06,0,0,1,1.3,2.53A11.33,11.33,0,0,1,57,21.18a10.12,10.12,0,0,1-.49,3.27A7.38,7.38,0,0,1,55.05,27a6.28,6.28,0,0,1-2.22,1.62A7.12,7.12,0,0,1,50,29.16Zm5.14-8a10,10,0,0,0-.29-2.51,6.12,6.12,0,0,0-.9-2,4.62,4.62,0,0,0-1.58-1.36A5.19,5.19,0,0,0,50,14.78a4.84,4.84,0,0,0-2.36.54A4.66,4.66,0,0,0,46,16.75a6.24,6.24,0,0,0-.9,2.05,9.41,9.41,0,0,0-.3,2.38,9.22,9.22,0,0,0,.34,2.59,6,6,0,0,0,1,2,4.38,4.38,0,0,0,1.61,1.31,4.9,4.9,0,0,0,2.22.47A4.8,4.8,0,0,0,52.3,27a4.64,4.64,0,0,0,1.6-1.45,6.5,6.5,0,0,0,.9-2A9.27,9.27,0,0,0,55.09,21.18Z"/><path class="cls-1" d="M61.7,28.75H60V13.61H61.7v2.28h.06a4.55,4.55,0,0,1,1.93-2,5.61,5.61,0,0,1,2.75-.69,6.11,6.11,0,0,1,1.78.23,4.12,4.12,0,0,1,1.24.63,3.71,3.71,0,0,1,.85.92,6.74,6.74,0,0,1,.57,1.14,5.06,5.06,0,0,1,2-2.2,5.81,5.81,0,0,1,2.91-.72,5.1,5.1,0,0,1,2.47.51,3.7,3.7,0,0,1,1.42,1.35A5.21,5.21,0,0,1,80.37,17a16.11,16.11,0,0,1,.16,2.22v9.56H78.77V18.29a4.34,4.34,0,0,0-.68-2.58,3,3,0,0,0-2.56-.93,4.2,4.2,0,0,0-3.42,1.72,3.46,3.46,0,0,0-.49.89,9.38,9.38,0,0,0-.3,1.07,8.48,8.48,0,0,0-.16,1.11c0,.37,0,.71,0,1v8.15H69.36V18.29a4.27,4.27,0,0,0-.69-2.58,3,3,0,0,0-2.56-.93,4.24,4.24,0,0,0-3.42,1.72,3.77,3.77,0,0,0-.48.89,7.73,7.73,0,0,0-.31,1.07,10.6,10.6,0,0,0-.16,1.11c0,.37,0,.71,0,1Z"/><path class="cls-1" d="M91.49,19.92c.33,0,.72-.09,1.18-.17a4.84,4.84,0,0,0,1.13-.32,1,1,0,0,0,.54-.69,4.18,4.18,0,0,0,.1-.89,3,3,0,0,0-.86-2.21,4.06,4.06,0,0,0-2.91-.86,8,8,0,0,0-1.67.16,3.77,3.77,0,0,0-1.33.55,3.09,3.09,0,0,0-.93,1.06,4.17,4.17,0,0,0-.48,1.65H84.47a5.49,5.49,0,0,1,.62-2.3,4.64,4.64,0,0,1,1.36-1.55,5.49,5.49,0,0,1,1.93-.87,9.16,9.16,0,0,1,2.32-.28,8.74,8.74,0,0,1,2.15.25,4.84,4.84,0,0,1,1.75.79,3.62,3.62,0,0,1,1.17,1.44,5.31,5.31,0,0,1,.43,2.23v8.24c0,.68.12,1.12.36,1.3s.74.14,1.48-.13v1.37l-.6.18a2.64,2.64,0,0,1-.78.12,3.48,3.48,0,0,1-.79-.09,1.35,1.35,0,0,1-.7-.28,1.82,1.82,0,0,1-.42-.53,2.11,2.11,0,0,1-.22-.67,4.72,4.72,0,0,1-.06-.77,7.64,7.64,0,0,1-2.54,1.87,7.48,7.48,0,0,1-3.1.64,7.23,7.23,0,0,1-1.92-.26,4.76,4.76,0,0,1-1.62-.82,4,4,0,0,1-1.11-1.36,4.22,4.22,0,0,1-.41-1.92q0-3.86,5.29-4.56Zm3,.88a8.37,8.37,0,0,1-2.25.61q-1.14.15-2.28.24a6.53,6.53,0,0,0-3.14.9,2.61,2.61,0,0,0-1.13,2.31,2.47,2.47,0,0,0,.28,1.22,2.58,2.58,0,0,0,.73.84,3,3,0,0,0,1,.5,4.59,4.59,0,0,0,1.22.16,8.15,8.15,0,0,0,2-.26,5.41,5.41,0,0,0,1.77-.81A4,4,0,0,0,94,25.14a3.86,3.86,0,0,0,.47-2Z"/><path class="cls-1" d="M112.48,7.7h1.75V28.75h-1.75V26.09h-.06a4.63,4.63,0,0,1-1,1.33,6,6,0,0,1-1.31.95,7.49,7.49,0,0,1-1.48.59,6,6,0,0,1-1.49.2,7.22,7.22,0,0,1-3.13-.61,5.87,5.87,0,0,1-2.12-1.68,7,7,0,0,1-1.21-2.53,12.15,12.15,0,0,1-.38-3.13,10.94,10.94,0,0,1,.41-3A7.35,7.35,0,0,1,102,15.61a6.17,6.17,0,0,1,2.1-1.75,6.44,6.44,0,0,1,3-.66,6.93,6.93,0,0,1,3.08.72A5.4,5.4,0,0,1,112.48,16Zm0,13.42a8.47,8.47,0,0,0-.35-2.44,6.49,6.49,0,0,0-1-2,4.94,4.94,0,0,0-1.61-1.37,4.46,4.46,0,0,0-2.15-.51,4.94,4.94,0,0,0-2.37.54,4.69,4.69,0,0,0-1.63,1.47,6.52,6.52,0,0,0-.94,2.18,10.07,10.07,0,0,0-.23,2.68,7.55,7.55,0,0,0,.39,2.53,5.38,5.38,0,0,0,1.1,1.85,4.72,4.72,0,0,0,1.64,1.16,5.22,5.22,0,0,0,2,.39,4.6,4.6,0,0,0,3.8-1.85,6.19,6.19,0,0,0,1-2.05A9.11,9.11,0,0,0,112.48,21.12Z"/><path class="cls-1" d="M44.13,32.37h0v8.17h-.88V31.18h1l5.4,8.18h0V31.18h.88v9.36h-1Z"/><path class="cls-1" d="M55.19,40.72A3.72,3.72,0,0,1,54,40.49a2.85,2.85,0,0,1-1-.67,3.08,3.08,0,0,1-.66-1.1,4.31,4.31,0,0,1-.25-1.55,4.75,4.75,0,0,1,.19-1.38,3.29,3.29,0,0,1,.59-1.13,2.81,2.81,0,0,1,1-.76,3.52,3.52,0,0,1,2.75,0,2.81,2.81,0,0,1,1,.76,3.14,3.14,0,0,1,.58,1.12,5.19,5.19,0,0,1,.19,1.39,4.76,4.76,0,0,1-.22,1.46,3.5,3.5,0,0,1-.63,1.12,2.94,2.94,0,0,1-1,.72A3.14,3.14,0,0,1,55.19,40.72Zm2.29-3.55a5,5,0,0,0-.13-1.12,2.85,2.85,0,0,0-.41-.9,1.77,1.77,0,0,0-.7-.6,2.26,2.26,0,0,0-1.05-.22,2.14,2.14,0,0,0-1,.24,2.06,2.06,0,0,0-.71.63,3,3,0,0,0-.4.91,4.44,4.44,0,0,0,0,2.21,2.84,2.84,0,0,0,.43.91,2,2,0,0,0,.72.58,2.25,2.25,0,0,0,1,.21,2,2,0,0,0,1.75-.88,3.07,3.07,0,0,0,.41-.92A4.44,4.44,0,0,0,57.48,37.17Z"/><path class="cls-1" d="M62.1,40.56l-.37.1a2.12,2.12,0,0,1-.52.06,1.25,1.25,0,0,1-.89-.29,1.42,1.42,0,0,1-.31-1V34.45h-.95v-.64H60V31.93h.78v1.88h1.26v.64H60.79v4.62c0,.16,0,.31,0,.43a.82.82,0,0,0,.08.3.42.42,0,0,0,.2.17,1.27,1.27,0,0,0,.39.05l.32,0,.31-.06Z"/><path class="cls-1" d="M68,33.81v7.63a5.66,5.66,0,0,1,0,.75,1.27,1.27,0,0,1-.17.55.84.84,0,0,1-.4.34,2.1,2.1,0,0,1-.74.11,2.41,2.41,0,0,1-.5,0v-.69a2,2,0,0,0,.54,0,.72.72,0,0,0,.33-.15.74.74,0,0,0,.16-.32,2,2,0,0,0,0-.45V33.81Zm0-1.47h-.85V31.18H68Z"/><path class="cls-1" d="M74.41,33.81h.78v6.73h-.78V39.6c-.1.12-.22.25-.35.38a3.13,3.13,0,0,1-.44.36,2.37,2.37,0,0,1-.6.27,2.57,2.57,0,0,1-.78.11,2.9,2.9,0,0,1-1.13-.19,1.87,1.87,0,0,1-.73-.52,2,2,0,0,1-.4-.79,3.42,3.42,0,0,1-.13-1V33.81h.78v4.41a2,2,0,0,0,.4,1.34,1.69,1.69,0,0,0,1.33.46,1.82,1.82,0,0,0,1.51-.72,2.4,2.4,0,0,0,.4-.8,3.38,3.38,0,0,0,.14-1Z"/><path class="cls-1" d="M77.53,38.43a2,2,0,0,0,.66,1.23,2.22,2.22,0,0,0,1.36.36,2.31,2.31,0,0,0,.74-.11,1.37,1.37,0,0,0,.51-.27,1.17,1.17,0,0,0,.31-.4,1.07,1.07,0,0,0,.1-.47A.85.85,0,0,0,80.9,38a2.48,2.48,0,0,0-.8-.38,10,10,0,0,0-1-.23,5.27,5.27,0,0,1-1-.3,1.93,1.93,0,0,1-.8-.56,1.45,1.45,0,0,1-.32-1,1.73,1.73,0,0,1,.62-1.39,2.55,2.55,0,0,1,1.74-.54,3,3,0,0,1,1.78.49,2.24,2.24,0,0,1,.82,1.63h-.79a1.49,1.49,0,0,0-.59-1.1,2.25,2.25,0,0,0-1.23-.31,1.77,1.77,0,0,0-1.13.31,1.05,1.05,0,0,0-.39.84.83.83,0,0,0,.32.7,2.59,2.59,0,0,0,.8.39,9.29,9.29,0,0,0,1,.26,4.88,4.88,0,0,1,1,.34,2.24,2.24,0,0,1,.8.57,1.52,1.52,0,0,1,.32,1,1.7,1.7,0,0,1-.21.85,1.87,1.87,0,0,1-.57.62,3.13,3.13,0,0,1-.87.37,4.69,4.69,0,0,1-1.1.12,3.14,3.14,0,0,1-1.06-.17,2.3,2.3,0,0,1-.78-.49,2.19,2.19,0,0,1-.51-.73,2.69,2.69,0,0,1-.21-.9Z"/><path class="cls-1" d="M86,40.56l-.38.1a2.12,2.12,0,0,1-.52.06,1.25,1.25,0,0,1-.89-.29,1.42,1.42,0,0,1-.31-1V34.45H82.9v-.64h.95V31.93h.78v1.88h1.26v.64H84.63v4.62c0,.16,0,.31,0,.43a.66.66,0,0,0,.07.3.4.4,0,0,0,.21.17,1.2,1.2,0,0,0,.38.05l.32,0c.11,0,.21,0,.32-.06Z"/><path class="cls-1" d="M91.63,40.54h-.78V33.81h.78v1.26h0a2.29,2.29,0,0,1,.84-1.13,2.58,2.58,0,0,1,1.36-.32v.85a2.21,2.21,0,0,0-1.09.21,1.64,1.64,0,0,0-.68.59,2.52,2.52,0,0,0-.36.89,6.3,6.3,0,0,0-.09,1.08Z"/><path class="cls-1" d="M95.62,37.35a3.9,3.9,0,0,0,.14,1,2.76,2.76,0,0,0,.42.84,2.08,2.08,0,0,0,.71.57,2.12,2.12,0,0,0,1,.22,2.19,2.19,0,0,0,1.31-.4,1.91,1.91,0,0,0,.73-1.15h.87a3.73,3.73,0,0,1-.38.89,2.7,2.7,0,0,1-.58.72,2.49,2.49,0,0,1-.83.47,3.47,3.47,0,0,1-1.12.17,3.28,3.28,0,0,1-1.39-.27,2.55,2.55,0,0,1-1-.75A3.19,3.19,0,0,1,95,38.58a5.11,5.11,0,0,1-.18-1.38A4.45,4.45,0,0,1,95,35.81a3.46,3.46,0,0,1,.61-1.14,2.9,2.9,0,0,1,1-.77,3,3,0,0,1,1.3-.28,2.66,2.66,0,0,1,2.18,1,4.18,4.18,0,0,1,.78,2.77ZM100,36.7a3.12,3.12,0,0,0-.13-.93,2.26,2.26,0,0,0-.41-.75,2,2,0,0,0-.67-.51,2.22,2.22,0,0,0-.92-.18,2.07,2.07,0,0,0-.92.19,2,2,0,0,0-.67.52,2.58,2.58,0,0,0-.45.75,3.46,3.46,0,0,0-.22.91Z"/><path class="cls-1" d="M102.82,38.43a2,2,0,0,0,.66,1.23,2.19,2.19,0,0,0,1.35.36,2.37,2.37,0,0,0,.75-.11,1.55,1.55,0,0,0,.51-.27,1.31,1.31,0,0,0,.31-.4,1.24,1.24,0,0,0,.1-.47.86.86,0,0,0-.32-.73,2.38,2.38,0,0,0-.8-.38,9.43,9.43,0,0,0-1-.23,5.47,5.47,0,0,1-1-.3,2,2,0,0,1-.8-.56,1.5,1.5,0,0,1-.32-1,1.76,1.76,0,0,1,.62-1.39,2.58,2.58,0,0,1,1.75-.54,3,3,0,0,1,1.77.49,2.24,2.24,0,0,1,.83,1.63h-.79a1.47,1.47,0,0,0-.6-1.1,2.19,2.19,0,0,0-1.22-.31,1.78,1.78,0,0,0-1.14.31,1.07,1.07,0,0,0-.38.84.82.82,0,0,0,.31.7,2.71,2.71,0,0,0,.8.39,9.29,9.29,0,0,0,1,.26,4.7,4.7,0,0,1,1,.34,2.24,2.24,0,0,1,.8.57,1.47,1.47,0,0,1,.32,1,1.7,1.7,0,0,1-.21.85,1.87,1.87,0,0,1-.57.62,2.94,2.94,0,0,1-.86.37,4.75,4.75,0,0,1-1.1.12,3.14,3.14,0,0,1-1.06-.17,2.26,2.26,0,0,1-1.3-1.22,2.46,2.46,0,0,1-.2-.9Z"/><path class="cls-1" d="M111.23,40.56l-.38.1a2.06,2.06,0,0,1-.52.06,1.27,1.27,0,0,1-.89-.29,1.46,1.46,0,0,1-.3-1V34.45h-1v-.64h1V31.93h.78v1.88h1.26v.64h-1.26v4.62c0,.16,0,.31,0,.43a.82.82,0,0,0,.08.3.38.38,0,0,0,.2.17,1.25,1.25,0,0,0,.38.05,1.73,1.73,0,0,0,.32,0,3,3,0,0,0,.32-.06Z"/><path class="cls-1" d="M112.87,40.54V39.39h.95v1.15Z"/></svg>